<?xml version="1.0" encoding="UTF-8" standalone="no"?><svg xmlns="http://www.w3.org/2000/svg" xmlns:xlink="http://www.w3.org/1999/xlink" fill="#f1a600" height="46.2" preserveAspectRatio="xMidYMid meet" version="1" viewBox="2.5 8.9 59.0 46.2" width="59" zoomAndPan="magnify"><g data-name="Layer 19" id="change1_1"><path d="M46.66232,32a18.917,18.917,0,0,1-8.71925,5.95842,8.40314,8.40314,0,0,0,0-11.91684A18.917,18.917,0,0,1,46.66232,32ZM32.001,29.224A2.77605,2.77605,0,1,0,34.77655,32,2.77929,2.77929,0,0,0,32.001,29.224Zm-5.92992-3.193A18.8424,18.8424,0,0,0,17.33768,32a18.8424,18.8424,0,0,0,8.7334,5.96906,8.40212,8.40212,0,0,1,0-11.93812ZM38.88176,32A6.88026,6.88026,0,1,1,32.001,25.11974,6.88873,6.88873,0,0,1,38.88176,32Zm-2.56613,0A4.31463,4.31463,0,1,0,32.001,36.31513,4.32005,4.32005,0,0,0,36.31563,32ZM14.81263,8.88327h-8.016A4.30167,4.30167,0,0,0,2.5,13.17986v8.016a1.28257,1.28257,0,1,0,2.56513,0v-8.016A1.73319,1.73319,0,0,1,6.79659,11.4484h8.016a1.28257,1.28257,0,0,0,0-2.56513Zm0,43.66833h-8.016a1.73319,1.73319,0,0,1-1.73146-1.73146v-8.016a1.28257,1.28257,0,1,0-2.56513,0v8.016a4.30167,4.30167,0,0,0,4.29659,4.29659h8.016a1.28257,1.28257,0,0,0,0-2.56513ZM57.20341,8.88327h-8.016a1.28257,1.28257,0,0,0,0,2.56513h8.016a1.73319,1.73319,0,0,1,1.73146,1.73146v8.016a1.28257,1.28257,0,1,0,2.56513,0v-8.016A4.30167,4.30167,0,0,0,57.20341,8.88327Zm3.014,32.63827a1.28375,1.28375,0,0,0-1.28256,1.28257v8.016a1.73319,1.73319,0,0,1-1.73146,1.73146h-8.016a1.28257,1.28257,0,0,0,0,2.56513h8.016A4.30167,4.30167,0,0,0,61.5,50.82014v-8.016A1.28375,1.28375,0,0,0,60.21743,41.52154Z"/></g></svg>